<?xml version="1.0" encoding="UTF-8"?>
<svg id="Layer_2" data-name="Layer 2" xmlns="http://www.w3.org/2000/svg" xmlns:xlink="http://www.w3.org/1999/xlink" viewBox="0 0 322.44 338.25">
  <defs>
    <style>
      .cls-1 {
        fill: url(#linear-gradient);
      }

      .cls-1, .cls-2, .cls-3, .cls-4, .cls-5, .cls-6, .cls-7, .cls-8, .cls-9 {
        stroke-width: 0px;
      }

      .cls-2 {
        fill: url(#New_Gradient_Swatch_3-2);
      }

      .cls-3 {
        fill: url(#New_Gradient_Swatch_4);
      }

      .cls-4 {
        fill: url(#New_Gradient_Swatch_3-4);
      }

      .cls-5 {
        fill: url(#New_Gradient_Swatch_4-2);
      }

      .cls-6 {
        fill: url(#linear-gradient-2);
      }

      .cls-7 {
        fill: url(#New_Gradient_Swatch_3-3);
      }

      .cls-8 {
        fill: url(#New_Gradient_Swatch_3-5);
      }

      .cls-9 {
        fill: url(#New_Gradient_Swatch_3);
      }
    </style>
    <linearGradient id="linear-gradient" x1="-18.24" y1="231.79" x2="16.57" y2="231.79" gradientTransform="translate(36.73 -39.09) rotate(5.36)" gradientUnits="userSpaceOnUse">
      <stop offset="0" stop-color="#ea2929"/>
      <stop offset="1" stop-color="#f37c23"/>
    </linearGradient>
    <linearGradient id="New_Gradient_Swatch_3" data-name="New Gradient Swatch 3" x1="1124.06" y1="1201" x2="1344.05" y2="1348.59" gradientTransform="translate(1503.1 1324.68) rotate(173.49)" gradientUnits="userSpaceOnUse">
      <stop offset="0" stop-color="#f37c23"/>
      <stop offset=".48" stop-color="#f1bb1f"/>
      <stop offset="1" stop-color="#ea2929"/>
    </linearGradient>
    <linearGradient id="New_Gradient_Swatch_3-2" data-name="New Gradient Swatch 3" x1="558.94" y1="2103.97" x2="778.91" y2="2251.54" gradientTransform="translate(2400.86 740.41) rotate(120.11)" xlink:href="#New_Gradient_Swatch_3"/>
    <linearGradient id="New_Gradient_Swatch_4" data-name="New Gradient Swatch 4" x1="79.79" y1="231.76" x2="117.11" y2="52.17" gradientTransform="translate(135.15 -107.79) rotate(21.37)" gradientUnits="userSpaceOnUse">
      <stop offset="0" stop-color="#f37c23"/>
      <stop offset="1" stop-color="#ea2929"/>
    </linearGradient>
    <linearGradient id="New_Gradient_Swatch_4-2" data-name="New Gradient Swatch 4" x1="873.4" y1="266.77" x2="1044.46" y2="381.53" gradientTransform="translate(781.73 909.47) rotate(-149)" xlink:href="#New_Gradient_Swatch_4"/>
    <linearGradient id="New_Gradient_Swatch_3-3" data-name="New Gradient Swatch 3" x1="-1193.9" y1="184.06" x2="-1075.54" y2="263.47" gradientTransform="translate(732.22 -927.46) rotate(-51.66)" xlink:href="#New_Gradient_Swatch_3"/>
    <linearGradient id="New_Gradient_Swatch_3-4" data-name="New Gradient Swatch 3" x1="-228.8" y1="-235.38" x2="-110.42" y2="-155.96" gradientTransform="translate(301.68 -112.13) rotate(-110.59)" xlink:href="#New_Gradient_Swatch_3"/>
    <linearGradient id="linear-gradient-2" x1="123.63" y1="28.36" x2="160.7" y2="-150.06" gradientTransform="translate(22.16 126.62) rotate(-.39) scale(.97) skewX(-.04)" gradientUnits="userSpaceOnUse">
      <stop offset="0" stop-color="#f1bb1f"/>
      <stop offset="1" stop-color="#ea2929"/>
    </linearGradient>
    <linearGradient id="New_Gradient_Swatch_3-5" data-name="New Gradient Swatch 3" x1="-972.89" y1="129.2" x2="-864.31" y2="202.04" gradientTransform="translate(152.47 -825.53) rotate(-81.98) skewX(.21)" xlink:href="#New_Gradient_Swatch_3"/>
  </defs>
  <g id="Layer_1-2" data-name="Layer 1">
    <path class="cls-1" d="M25.54,257.66S-12.32,207.4,4.15,125.65l21.38,132Z"/>
    <path class="cls-9" d="M186.44,291.38c-87.63,2.67-160.81-66.2-163.47-153.81-1.16-38.14,11.22-73.55,32.83-101.58C21.19,66.17-.12,111.02,1.39,160.51c2.67,87.62,75.84,156.48,163.46,153.81,49.5-1.5,92.98-25.51,120.99-61.9-26.68,23.26-61.25,37.78-99.4,38.96Z"/>
    <path class="cls-2" d="M288.38,239.24c-50.08,71.9-149.02,89.6-220.94,39.5-31.31-21.82-52.33-52.88-61.97-86.92,3.6,45.77,26.9,89.64,67.52,117.94,71.92,50.1,170.85,32.42,220.96-39.52,28.29-40.61,34.96-89.83,22.45-134.03,2.76,35.31-6.18,71.72-28.02,103.03Z"/>
    <path class="cls-3" d="M66.97,123.7C77.79,56.4,141.13,10.61,208.43,21.43c29.29,4.72,54.53,19.38,72.76,39.99C263.23,30.56,232.09,7.69,194.07,1.58,126.79-9.24,63.43,36.55,52.63,103.87c-6.14,38,5.83,74.73,29.5,101.48-13.86-23.8-19.86-52.32-15.16-81.64Z"/>
    <path class="cls-5" d="M115.67,220.76c-55.31-39.85-67.85-116.98-28.01-172.28C105,24.37,129.41,8.41,156.02,1.33c-35.66,2.21-70.04,19.82-92.54,51.05-39.85,55.33-27.32,132.46,28.02,172.31,31.23,22.51,69.42,28.27,103.95,19.1-27.48,1.71-55.7-5.69-79.78-23.04Z"/>
    <path class="cls-7" d="M147.7,86.53c32.24-34.42,86.29-36.23,120.74-4.01,14.97,14.03,23.79,32.19,26.28,51.07,1.63-24.65-7.41-49.8-26.84-68.01-34.46-32.22-88.51-30.42-120.74,4.01-18.2,19.47-25.53,45.15-22.28,69.66,1.24-19.02,8.82-37.72,22.84-52.72Z"/>
    <path class="cls-4" d="M136.45,155.8c-12.86-45.38,13.48-92.6,58.88-105.48,19.74-5.6,39.83-3.76,57.32,3.85-20.29-14.14-46.5-19.37-72.12-12.12-45.39,12.88-71.75,60.12-58.89,105.5,7.29,25.61,25.53,45.17,48.18,55.02-15.63-10.86-27.76-27.02-33.37-46.77Z"/>
    <path class="cls-6" d="M85.23,161.82c-14.25-63.73,25.94-126.97,89.77-141.25,27.79-6.21,55.48-2.12,79.05,9.74C227.08,9.23,191.2-.06,155.15,8.01c-63.81,14.27-104.02,77.52-89.74,141.26,8.02,35.99,31.73,64.42,62.33,79.81-20.81-16.25-36.28-39.5-42.5-67.26Z"/>
    <path class="cls-8" d="M137.41,121.72c9.62-42.23,51.77-68.83,94.19-59.4,18.44,4.13,33.92,14.38,44.69,28.15-10.18-20.25-29.08-35.93-53.03-41.29-42.42-9.43-84.58,17.16-94.18,59.4-5.41,23.87.72,47.59,14.71,65.46-7.87-15.61-10.54-33.93-6.38-52.33Z"/>
  </g>
</svg>